<svg version="1.1" id="Layer_1" xmlns="http://www.w3.org/2000/svg" xmlns:xlink="http://www.w3.org/1999/xlink" x="0px" y="0px"
	 width="100%" viewBox="0 0 480 672" enable-background="new 0 0 480 672" xml:space="preserve">
<path fill="#000000" opacity="1.000000" stroke="none" 
	d="
M15.375000,673.000000 
	C21.602583,662.770996 29.852531,653.821106 37.418087,644.349304 
	C77.735695,593.873291 118.221191,543.531494 158.619217,493.119690 
	C170.176743,478.697296 181.639557,464.198975 193.135849,449.727600 
	C194.259293,448.313385 195.629929,447.015442 195.797333,443.704498 
	C185.308716,443.023987 174.790512,443.471191 164.306442,443.391663 
	C153.642242,443.310791 142.976944,443.373627 132.312134,443.373566 
	C121.673798,443.373505 111.035461,443.373535 100.397133,443.373535 
	C100.110703,442.934631 99.824280,442.495697 99.537857,442.056793 
	C153.704468,387.845215 207.871078,333.633606 262.037689,279.422028 
	C261.767120,278.760223 261.496552,278.098450 261.225983,277.436676 
	C229.802567,277.436676 198.379150,277.436676 166.955734,277.436676 
	C166.711823,276.757416 166.467911,276.078156 166.224014,275.398865 
	C270.123718,186.956619 374.023438,98.514351 477.923157,10.072091 
	C478.274902,10.403875 478.626617,10.735661 478.978333,11.067445 
	C428.957275,76.296715 378.936249,141.525986 328.915192,206.755249 
	C329.197845,207.317429 329.480499,207.879608 329.763153,208.441788 
	C361.548859,208.441788 393.334564,208.441788 425.120270,208.441788 
	C425.431580,209.090744 425.742920,209.739700 426.054230,210.388672 
	C371.645996,264.866638 317.237793,319.344635 262.829559,373.822601 
	C263.080688,374.400757 263.331818,374.978882 263.582916,375.557037 
	C295.212006,375.557037 326.841064,375.557037 358.442596,375.557037 
	C358.631897,378.365540 357.112457,379.051453 356.041077,379.978271 
	C327.573700,404.604980 299.076202,429.196869 270.613495,453.829010 
	C224.893951,493.395538 179.189957,532.980042 133.490234,572.569519 
	C95.597282,605.395935 57.719608,638.240051 19.839924,671.081787 
	C19.338818,671.516235 18.900568,672.023193 18.216496,672.748169 
	C17.250000,673.000000 16.500000,673.000000 15.375000,673.000000 
z"/>
</svg>